:SAMPLES-PER-SECOND 30
:FULLY-SPECIFIED
:DEGREES
357
root  54.5937 37.6429 4.42696 21.5268 23.5231 10.5757
RightUpLeg  -55.1682 -32.5054 21.436
RightLeg  28.3648 -1.50256 -1.11967
RightFoot  -3.4594 1.40461 -20.4698
RightToes  0.00048216 0.542163 -0.142577
Spine  55.9662 -5.11813 14.4269
Spine1  17.6147 2.99001 -0.528799
HEad  -19.06 -13.8717 1.99239
LeftShoulder1  9.24492 -19.1821 -34.6377
LeftArm  -19.0167 -26.3853 -31.5947
LeftForeArm  23.8494 -39.5581 -7.73242
LeftHand  -0.25398 0.0180481 5.50724
RightShoulder  2.39206 10.3293 10.0745
RightArm  -34.0671 63.6674 21.9717
RightForeArm  -0.472752 -0.918286 3.23588
RightHand  -2.12341 6.94183 -20.2026
LeftUpLeg  -54.1059 28.4828 -18.2373
LeftLeg  45.264 3.96676 4.69468
LeftFoot  -0.74854 0.110134 -1.1332
LeftToes  1.06243e-005 4.65856e-005 -8.18505e-006
358
root  55.2955 37.61 4.6698 23.663 21.4276 10.2959
RightUpLeg  -57.6746 -31.1851 21.6204
RightLeg  29.7975 -0.526246 -0.568081
RightFoot  -3.66249 1.32909 -19.9353
RightToes  0.00048216 0.542163 -0.142577
Spine  59.2212 -5.97888 13.629
Spine1  15.8935 3.39066 -3.48729
HEad  -19.9729 -13.1405 3.55727
LeftShoulder1  8.27598 -19.4457 -29.9489
LeftArm  -20.7952 -31.2012 -30.3119
LeftForeArm  24.4275 -37.1259 -6.99633
LeftHand  -0.25398 0.0180481 5.50724
RightShoulder  2.3455 10.6372 9.23064
RightArm  -38.4234 65.2149 18.0708
RightForeArm  -2.38346 -0.851526 2.90497
RightHand  -2.05677 6.69838 -19.965
LeftUpLeg  -55.0923 27.4861 -17.2229
LeftLeg  34.0034 3.68424 3.04035
LeftFoot  0.264594 0.242432 -2.37892
LeftToes  1.06243e-005 4.65856e-005 -8.18505e-006
359
root  56.0726 37.4158 4.90445 25.8893 19.2093 9.50923
RightUpLeg  -61.1722 -29.6248 22.3193
RightLeg  32.4188 0.425134 0.0398461
RightFoot  -3.93538 1.24785 -19.4674
RightToes  0.00048216 0.542163 -0.142577
Spine  60.8471 -5.89873 12.7889
Spine1  15.4557 3.52216 -4.69656
HEad  -21.5362 -12.2166 4.24512
LeftShoulder1  7.54155 -19.8836 -26.0259
LeftArm  -25.1777 -36.9718 -27.6876
LeftForeArm  24.9666 -33.3985 -5.97475
LeftHand  -0.25398 0.0180481 5.50724
RightShoulder  2.02165 10.4272 6.92098
RightArm  -43.7035 67.0551 13.6691
RightForeArm  -3.77052 -0.917858 2.39806
RightHand  -1.94452 6.27842 -19.5667
LeftUpLeg  -56.3439 26.9646 -16.1548
LeftLeg  24.2753 2.11659 1.39277
LeftFoot  0.923736 0.6157 -5.81511
LeftToes  1.06243e-005 4.65856e-005 -8.18505e-006
360
root  56.9286 37.0854 5.14307 27.5634 16.8956 7.93053
RightUpLeg  -64.74 -28.3652 23.9304
RightLeg  35.6301 1.40209 0.814478
RightFoot  -4.51987 1.11051 -18.9344
RightToes  0.00048216 0.542163 -0.142577
Spine  61.6954 -5.51635 12.426
Spine1  16.0241 3.81559 -5.4282
HEad  -23.6018 -11.4516 4.7985
LeftShoulder1  6.9713 -20.6786 -22.4368
LeftArm  -32.4327 -42.8632 -22.9767
LeftForeArm  24.7277 -28.7377 -4.88029
LeftHand  -0.25398 0.0180481 5.50724
RightShoulder  1.81145 10.4886 5.15406
RightArm  -50.7977 68.4546 5.40037
RightForeArm  -5.59676 -1.27934 2.20214
RightHand  -1.96996 6.35385 -19.6896
LeftUpLeg  -58.2146 27.9876 -15.523
LeftLeg  18.7345 -1.28993 -0.172426
LeftFoot  0.788642 1.11475 -10.4981
LeftToes  1.06243e-005 4.65856e-005 -8.18505e-006
361
root  57.8449 36.7228 5.35059 29.0294 14.8947 6.11305
RightUpLeg  -68.0927 -27.7136 26.1403
RightLeg  38.5101 2.50974 1.86093
RightFoot  -5.37263 0.935412 -18.4453
RightToes  0.00048216 0.542163 -0.142577
Spine  62.3621 -5.09699 12.0562
Spine1  17.9258 4.33967 -5.75768
HEad  -25.8033 -11.089 5.10805
LeftShoulder1  6.57864 -21.7416 -19.4622
LeftArm  -42.8915 -48.2263 -15.7513
LeftForeArm  22.3786 -23.782 -3.86451
LeftHand  -0.25398 0.0180481 5.50724
RightShoulder  1.5738 10.3661 3.34266
RightArm  -59.2636 69.3377 -4.86276
RightForeArm  -7.83201 -1.63416 2.10933
RightHand  -2.25831 7.30639 -20.834
LeftUpLeg  -61.2057 29.8163 -16.5557
LeftLeg  17.8428 -5.50569 -1.68235
LeftFoot  1.8543 1.51365 -13.1352
LeftToes  1.06243e-005 4.65856e-005 -8.18505e-006
